<svg width="50" height="45" viewBox="0 0 50 45" fill="none" xmlns="http://www.w3.org/2000/svg">
<g clip-path="url(#clip0_4_140)">
<path d="M12.6187 2.47204C16.099 0.465796 19.4021 0.245109 22.0916 0.0645475C27.1122 -0.272501 30.959 0.814882 32.3882 1.26829C34.1716 1.83405 38.3479 3.20231 42.273 6.88577C43.142 7.7003 49.0893 13.4542 49.6865 22.5345C49.806 24.3561 49.9831 27.6102 48.4509 31.3619C46.5152 36.1007 43.039 38.7208 41.0374 40.1894C39.6247 41.2246 36.2597 43.6401 31.1526 44.6031C24.4639 45.863 19.1591 43.8086 17.1492 42.9981C14.3774 41.8826 12.454 40.5425 11.3831 39.7881C9.67388 38.5844 6.70434 36.4899 4.38142 32.9669C3.61947 31.8113 -0.124375 26.1296 1.08651 18.9232C1.81551 14.5938 3.99427 11.7168 6.44075 8.49076C8.19941 6.16753 9.74802 4.12919 12.6187 2.47204Z" fill="#BBDCFF"/>
<path d="M27.6067 18.8827C27.446 18.3009 27.5861 17.8234 27.6643 17.5626C27.7879 17.1534 28.0021 16.4512 28.6775 16.1502C29.4765 15.7931 30.3003 16.2746 30.4321 16.3549C31.1446 16.7882 31.5812 17.6509 31.4247 18.5136C31.2599 19.3963 30.5474 19.8457 30.4115 19.926C30.2426 20.0263 29.3406 20.5359 28.5045 20.1106C27.8538 19.7775 27.6684 19.0954 27.6067 18.8827Z" fill="black"/>
<path d="M22.0918 20.1266V22.9354C22.2607 23.4971 22.8167 23.8301 23.3274 23.7378C23.7187 23.6656 24.044 23.3486 24.1511 22.9354V20.1266C23.9823 19.5649 23.4262 19.2318 22.9155 19.3241C22.5243 19.3963 22.1989 19.7133 22.0918 20.1266Z" fill="black"/>
<path d="M17.1493 27.7503C18.1214 27.1685 18.7968 26.9478 18.7968 26.9478C20.1024 26.5225 20.9056 26.2577 22.0917 26.1453C23.4056 26.0209 24.9336 25.8765 26.6222 26.5466C28.7269 27.3812 29.8677 28.9942 30.329 29.7566C30.6667 30.0856 30.6667 30.6313 30.329 30.9603C29.9913 31.2893 29.4312 31.2893 29.0934 30.9603C28.6445 30.5229 28.3562 30.2982 27.8578 29.7566C27.3059 29.1547 26.7417 28.8417 26.2104 28.5528C24.6288 27.6861 23.0267 27.7182 22.5036 27.7503C22.17 27.7704 20.9591 27.8627 19.6205 28.5528C19.0892 28.8257 18.6774 29.1226 18.3849 29.3553C18.2614 29.4677 17.9772 29.6924 17.5612 29.7566C17.2194 29.8087 16.5727 29.7846 16.3256 29.3553C16.1403 29.0303 16.2886 28.6491 16.3256 28.5528C16.4657 28.1997 16.7416 27.9951 17.1493 27.7503Z" fill="black"/>
<path d="M36.0951 23.7378C35.4773 22.9313 34.8843 22.4378 34.4477 22.1328C34.4477 22.1328 34.3406 22.0606 33.2121 21.3303C33.0597 21.21 32.7838 21.0214 32.3884 20.9291C32.1165 20.8649 31.8076 20.7927 31.5646 20.9291C31.3958 21.0254 31.2351 21.234 31.1528 22.1328C31.0786 22.9393 31.1363 23.5653 31.1528 23.7378C31.1898 24.1351 31.2475 24.5764 31.5646 26.1453C31.8488 27.5577 31.89 27.642 31.9765 27.7503C32.6108 28.5488 34.18 28.8016 35.2714 28.1516C36.2269 27.5818 36.4329 26.5305 36.507 26.1453C36.7377 24.9657 36.2599 24.0307 36.0951 23.7378ZM34.4477 26.1453C34.0317 26.3138 33.3645 26.0089 33.2121 25.3428L32.9979 23.473C32.9938 23.4249 33.0432 23.3928 33.0844 23.4168C33.381 23.6175 33.7063 23.8542 34.0358 24.1391C34.353 24.4119 34.6207 24.6808 34.8513 24.9336C34.8554 24.9376 34.8595 24.9456 34.8637 24.9536C35.0449 25.4833 34.8019 26.0009 34.4477 26.1453Z" fill="black"/>
<path d="M16.3256 16.1141C15.679 16.2425 15.0283 16.6759 14.6782 17.3179C14.2169 18.1645 14.2457 19.4445 15.0901 20.1266C15.7943 20.6964 16.6757 20.5399 16.7375 20.5279C17.9072 20.3032 18.3232 19.1034 18.385 18.9229C18.4591 18.7062 18.6774 18.0482 18.385 17.3179C18.3314 17.1855 17.9896 16.3348 17.1494 16.1141C16.7993 16.0219 16.5069 16.078 16.3256 16.1141Z" fill="black"/>
</g>
<defs>
<clipPath id="clip0_4_140">
<rect width="48.913" height="45" fill="white" transform="translate(0.847778)"/>
</clipPath>
</defs>
</svg>
