<svg width="155" height="49" viewBox="0 0 155 49" fill="none" xmlns="http://www.w3.org/2000/svg">
<g clip-path="url(#clip0_4_119)">
<path d="M53.0951 13.2677C43.391 13.2677 35.504 21.0405 35.3147 30.703C35.3109 30.8223 35.309 30.9416 35.309 31.0609C35.309 31.6043 35.3336 32.1439 35.3828 32.676C36.1967 41.7477 43.815 48.854 53.0951 48.854C62.9184 48.854 70.8811 40.8881 70.8811 31.0609C70.8811 21.2336 62.9184 13.2677 53.0951 13.2677ZM43.7582 33.4523C43.6333 32.7385 43.5613 32.0057 43.5519 31.2578C43.6617 26.1264 47.856 21.9986 53.0118 21.9986C58.1676 21.9986 62.4755 26.2381 62.4755 31.4661C62.4755 36.694 58.2376 40.9335 53.0118 40.9335C48.473 40.9335 44.6799 37.7354 43.7601 33.4713C43.7601 33.4656 43.7601 33.458 43.7563 33.4523H43.7582Z" fill="#6F7CE5"/>
<path d="M70.7978 31.059C70.7978 38.5875 64.6975 44.6884 57.1739 44.6884C50.4717 44.6884 44.8995 39.8486 43.762 33.4713C44.6818 37.7373 48.4749 40.9336 53.0137 40.9336C58.2395 40.9336 62.4773 36.694 62.4773 31.4661C62.4773 26.2382 58.2395 21.9986 53.0137 21.9986C47.7878 21.9986 43.6617 26.1245 43.5538 31.2578C43.55 31.1915 43.55 31.1253 43.55 31.059C43.55 23.5305 49.6484 17.4296 57.1739 17.4296C64.6994 17.4296 70.7978 23.5305 70.7978 31.059Z" fill="#596BD3"/>
<path d="M112.726 4.10131V45.2545H112.612C112.324 47.2881 110.576 48.8521 108.465 48.8521C106.542 48.8521 104.92 47.5551 104.43 45.7866C104.358 45.5309 104.309 45.2621 104.29 44.9856C104.286 44.9591 104.284 44.9307 104.282 44.9023C104.277 44.8228 104.275 44.7414 104.275 44.6599V30.8602C104.275 25.9238 100.429 21.8017 95.4999 21.5555C95.4659 21.5555 95.4318 21.5517 95.3977 21.5517C95.2028 21.5385 95.004 21.5328 94.8072 21.5328C94.6103 21.5328 94.4116 21.5385 94.2167 21.5517C86.9599 21.8604 81.1681 27.8457 81.1681 35.183C81.1681 41.0339 84.8514 46.027 90.0261 47.9622C82.5252 45.8756 77.0211 38.9927 77.0211 30.8223C77.0211 20.997 84.9839 13.0291 94.8072 13.0291C98.3939 13.0291 101.733 14.0933 104.524 15.9186V4.10131C104.524 1.83669 106.36 0 108.626 0C109.758 0 110.782 0.458225 111.524 1.20047C112.266 1.94272 112.726 2.969 112.726 4.10131Z" fill="#6F7CE5"/>
<path d="M94.8072 21.5385C94.6084 21.5385 94.4135 21.5423 94.2167 21.5517C94.4116 21.5385 94.6084 21.5328 94.8072 21.5328C95.0059 21.5328 95.2028 21.5385 95.3977 21.5517C95.2009 21.5423 95.004 21.5385 94.8072 21.5385Z" fill="#4D4D4D"/>
<path d="M98.9674 44.6353C98.9674 46.4266 97.8526 47.9565 96.2816 48.5549C95.7952 48.5965 95.3031 48.6155 94.8072 48.6155C94.3113 48.6155 93.8192 48.5965 93.3327 48.5549C92.1971 48.4621 91.0899 48.2633 90.0261 47.9622C84.8514 46.0271 81.1681 41.0339 81.1681 35.183C81.1681 27.8457 86.9599 21.8604 94.2167 21.5518C89.2634 21.8566 85.3435 25.9712 85.3435 31.0003C85.3435 36.0294 89.3826 40.2689 94.44 40.4602C94.5611 40.4488 94.6842 40.4431 94.8072 40.4431C94.9302 40.4431 95.0532 40.4488 95.1744 40.4602C97.2999 40.6476 98.9674 42.4446 98.9674 44.6353Z" fill="#4D4D4D"/>
<path d="M95.1744 40.4602C95.0532 40.4678 94.9302 40.4697 94.8072 40.4697C94.6842 40.4697 94.5611 40.4697 94.44 40.4602C94.5611 40.4488 94.6842 40.445 94.8072 40.445C94.9302 40.445 95.0532 40.4507 95.1744 40.4602Z" fill="black"/>
<path d="M95.3977 21.5517C95.2009 21.5423 95.004 21.5385 94.8072 21.5385C94.6103 21.5385 94.4135 21.5423 94.2167 21.5517C94.4116 21.5385 94.6084 21.5328 94.8072 21.5328C95.0059 21.5328 95.2028 21.5385 95.3977 21.5517Z" fill="black"/>
<path d="M98.9674 44.6353C98.9674 46.4266 97.8526 47.9565 96.2816 48.5549C95.8236 48.731 95.3258 48.8256 94.8072 48.8256C93.1245 48.8256 91.5138 48.5208 90.0261 47.9622C84.8514 46.0271 81.1681 41.0339 81.1681 35.183C81.1681 27.8457 86.9599 21.8604 94.2167 21.5518C89.2634 21.8566 85.3435 25.9712 85.3435 31.0003C85.3435 36.0294 89.3826 40.2689 94.44 40.4602C94.5611 40.4488 94.6842 40.4431 94.8072 40.4431C94.9302 40.4431 95.0532 40.4488 95.1744 40.4602C97.2999 40.6476 98.9674 42.4446 98.9674 44.6353Z" fill="#596BD3"/>
<path d="M98.9674 44.6353C98.9674 46.4285 97.8507 47.9565 96.2816 48.5549C95.8236 48.7291 95.3258 48.8256 94.8072 48.8256C94.2886 48.8256 93.7908 48.7291 93.3327 48.5549C91.7618 47.9565 90.6469 46.4266 90.6469 44.6353C90.6469 42.4446 92.3163 40.6476 94.44 40.4602C94.5611 40.4488 94.6842 40.445 94.8072 40.445C94.9302 40.445 95.0532 40.4507 95.1744 40.4602C97.2999 40.6476 98.9674 42.4446 98.9674 44.6353Z" fill="#4C62C1"/>
<path d="M137.214 13.2677C127.51 13.2677 119.623 21.0405 119.434 30.703C119.43 30.8223 119.428 30.9416 119.428 31.0609C119.428 31.6043 119.453 32.1439 119.502 32.676C120.316 41.7477 127.934 48.854 137.214 48.854C147.037 48.854 155 40.8881 155 31.0609C155 21.2336 147.037 13.2677 137.214 13.2677ZM127.877 33.4523C127.752 32.7385 127.68 32.0057 127.671 31.2578C127.781 26.1264 131.975 21.9986 137.131 21.9986C142.286 21.9986 146.594 26.2381 146.594 31.4661C146.594 36.694 142.357 40.9335 137.131 40.9335C132.592 40.9335 128.799 37.7354 127.879 33.4713C127.879 33.4656 127.879 33.458 127.875 33.4523H127.877Z" fill="#6F7CE5"/>
<path d="M154.919 31.059C154.919 38.5875 148.818 44.6884 141.295 44.6884C134.593 44.6884 129.02 39.8486 127.883 33.4713C128.803 37.7373 132.596 40.9336 137.134 40.9336C142.36 40.9336 146.598 36.694 146.598 31.4661C146.598 26.2382 142.36 21.9986 137.134 21.9986C131.909 21.9986 127.782 26.1245 127.675 31.2578C127.671 31.1915 127.671 31.1253 127.671 31.059C127.671 23.5305 133.769 17.4296 141.295 17.4296C148.82 17.4296 154.919 23.5305 154.919 31.059Z" fill="#596BD3"/>
<path d="M21.5545 4.18651V44.7944H13.3533V4.66178C13.3343 4.50651 13.3249 4.34746 13.3249 4.18651C13.3249 1.92189 15.1608 0.0852051 17.4245 0.0852051C19.6883 0.0852051 21.5242 1.92189 21.5242 4.18651H21.5526H21.5545Z" fill="#6F7CE5"/>
<path d="M17.4529 48.8522C19.7171 48.8522 21.5526 47.0159 21.5526 44.7508C21.5526 42.4858 19.7171 40.6495 17.4529 40.6495C15.1887 40.6495 13.3533 42.4858 13.3533 44.7508C13.3533 47.0159 15.1887 48.8522 17.4529 48.8522Z" fill="#596BD3"/>
<path d="M30.2611 12.1922H4.09967C1.83548 12.1922 0 14.0284 0 16.2935V16.2954C0 18.5605 1.83548 20.3967 4.09967 20.3967H30.2611C32.5253 20.3967 34.3607 18.5605 34.3607 16.2954V16.2935C34.3607 14.0284 32.5253 12.1922 30.2611 12.1922Z" fill="#6F7CE5"/>
</g>
<defs>
<clipPath id="clip0_4_119">
<rect width="155" height="48.8521" fill="white"/>
</clipPath>
</defs>
</svg>
