<svg width="50" height="45" viewBox="0 0 50 45" fill="none" xmlns="http://www.w3.org/2000/svg">
<g clip-path="url(#clip0_4_111)">
<path d="M10.5437 4.13061C12.4171 2.68849 13.8201 1.60996 15.9558 0.86234C17.6918 0.253624 20.3063 0.184174 25.5311 0.0452723C27.3004 -0.00375178 28.1996 -0.0241785 28.8616 0.0452723C31.8466 0.359843 33.9656 1.45471 35.939 2.49648C36.8798 2.99489 39.4444 4.41658 42.1837 6.99035C43.237 7.979 44.8273 9.49466 46.3469 11.8928C47.3918 13.5473 48.4534 15.2223 48.8448 17.6122C49.1154 19.279 48.7449 19.3403 48.8448 22.5146C48.953 25.8973 49.3818 26.0566 49.2611 27.8256C49.0654 30.669 47.779 32.728 46.7632 34.3621C46.3136 35.0852 44.6233 37.6917 41.3511 40.0816C37.5959 42.8269 33.9448 43.6808 31.7758 44.1669C29.3487 44.7103 22.7334 46.0993 15.1231 43.3499C12.9708 42.5736 7.75017 40.6127 3.88259 35.5877C2.80433 34.1864 1.12241 31.9477 0.552056 28.6426C0.13574 26.2323 0.493772 24.2877 0.968373 21.6976C1.49293 18.8337 2.27561 16.7829 3.04996 14.7525C4.17401 11.8029 4.73604 10.3281 5.96417 8.62448C7.52952 6.45108 9.21977 5.15194 10.5437 4.13061Z" fill="#F9BB91"/>
<path d="M20.9522 23.65V22.4244C20.9148 22.0894 21.0813 21.7708 21.3686 21.6074C21.6267 21.4644 21.9431 21.4644 22.2012 21.6074C22.4885 21.7708 22.655 22.0894 22.6175 22.4244V25.2842C22.655 25.6192 22.4885 25.9378 22.2012 26.1012C21.9431 26.2442 21.6267 26.2442 21.3686 26.1012C21.0813 25.9378 20.9148 25.6192 20.9522 25.2842V23.65Z" fill="black"/>
<path d="M13.8749 25.6927C13.8749 25.6927 14.4536 26.7508 15.9565 28.5524C16.6475 29.3858 17.4552 29.7453 18.4544 30.1866C18.7458 30.3173 20.1821 30.9301 22.2012 31.0036C22.9381 31.0281 24.1163 31.0608 25.5317 30.5951C26.8764 30.1539 27.7632 29.4839 28.446 28.961C29.4077 28.2215 30.0862 27.4739 30.5275 26.9183C30.6483 26.8039 30.9355 26.571 31.3602 26.5098C31.6016 26.473 31.7182 26.4893 31.7765 26.5098C32.0471 26.5996 32.1637 26.857 32.1928 26.9183C32.326 27.2084 32.2553 27.4902 32.1928 27.7354C32.147 27.9192 32.0388 28.2297 31.7765 28.5524C31.4185 28.9814 30.8689 29.5738 30.1112 30.1866C29.6491 30.5583 27.8923 31.9269 25.1154 32.6378C24.212 32.8706 23.1796 33.1362 21.7849 33.0463C20.3736 32.9564 19.2995 32.5479 18.4544 32.2292C17.7633 31.9678 16.9306 31.6532 15.9565 31.0036C15.9565 31.0036 14.2163 29.8434 13.0422 28.1439C12.9007 27.9396 12.2096 26.9183 12.2096 26.9183C11.964 26.5302 11.964 26.0481 12.2096 25.6927C12.501 25.2719 13.0839 25.1248 13.4586 25.2842C13.7125 25.3904 13.8332 25.6192 13.8749 25.6927Z" fill="black"/>
<path d="M13.6667 17.4076C13.3253 17.0726 13.3253 16.517 13.6667 16.182C14.0081 15.847 14.5742 15.847 14.9156 16.182L18.6625 18.6332C19.187 18.9396 19.5367 19.4095 19.4951 19.8588C19.4618 20.1938 19.212 20.5084 19.0788 20.6759C18.9289 20.8638 18.7749 20.9986 18.6625 21.0844C17.988 21.4562 17.2928 21.8647 16.5809 22.31C16.1479 22.5838 15.7316 22.8534 15.3319 23.1271C14.6492 23.5928 13.904 23.4825 13.6667 23.1271C13.5293 22.9188 13.5168 22.5511 13.6667 22.31C13.7916 22.1099 14.083 21.9015 14.083 21.9015L16.5809 20.2674C16.4144 20.3736 16.9806 20.0508 16.9972 19.8588C17.0139 19.6627 16.66 19.4912 16.5809 19.4503C16.1021 19.2093 15.232 18.621 13.6667 17.4076Z" fill="black"/>
<path d="M31.5017 17.7998C31.8431 17.4648 31.8431 16.9092 31.5017 16.5742C31.1603 16.2392 30.5941 16.2392 30.2528 16.5742L26.5059 19.0254C25.9814 19.3318 25.6316 19.8016 25.6733 20.251C25.7066 20.586 25.9564 20.9006 26.0896 21.0681C26.2395 21.256 26.3935 21.3908 26.5059 21.4766C27.1803 21.8484 27.8756 22.2569 28.5875 22.7022C29.0205 22.9759 29.4368 23.2456 29.8364 23.5193C30.5192 23.985 31.2644 23.8747 31.5017 23.5193C31.6391 23.3109 31.6516 22.9433 31.5017 22.7022C31.3768 22.502 31.0854 22.2937 31.0854 22.2937L28.5875 20.6596C28.754 20.7658 28.1878 20.443 28.1712 20.251C28.1545 20.0549 28.5084 19.8833 28.5875 19.8425C29.0663 19.6015 29.9364 19.0132 31.5017 17.7998Z" fill="black"/>
</g>
<defs>
<clipPath id="clip0_4_111">
<rect width="48.913" height="45" fill="white" transform="translate(0.369507)"/>
</clipPath>
</defs>
</svg>
