<svg width="50" height="45" viewBox="0 0 50 45" fill="none" xmlns="http://www.w3.org/2000/svg">
<g clip-path="url(#clip0_4_148)">
<path d="M11.456 4.7073C13.2194 3.53345 16.0136 1.95727 19.7351 0.974232C21.8297 0.418421 24.7398 -0.319896 28.4282 0.144663C33.6316 0.800023 37.1419 3.44635 38.7771 4.7073C42.9953 7.96336 44.9699 11.7586 46.2283 14.2473C47.7475 17.2462 49.0473 19.8096 49.126 23.3726C49.2543 29.0178 46.2324 33.1366 44.5725 35.4014C43.2561 37.1974 39.6133 42.0213 32.9817 44.1119C28.8049 45.4267 25.4684 45.0202 21.3909 44.5266C14.987 43.7468 9.10057 43.0334 4.83268 38.3049C0.759355 33.7962 0.43647 28.1509 0.279167 25.4465C0.142561 23.103 -0.101673 17.379 3.59081 11.7586C6.22357 7.75182 9.63871 5.65301 11.456 4.7073Z" fill="#DBC9F4"/>
<path d="M16.4236 21.2992C16.1711 21.4651 15.7944 21.7057 15.5957 22.1288C15.2604 22.838 15.397 24.1031 16.4236 24.6175C17.4502 25.1318 18.5058 24.5552 18.9074 23.7879C19.2799 23.0786 18.986 22.332 18.9074 22.1288C18.8453 21.967 18.4686 21.0088 17.6655 20.8844C17.177 20.8097 16.7631 21.0794 16.4236 21.2992Z" fill="black"/>
<path d="M29.6703 20.4696C28.921 20.5194 28.4988 21.1872 28.4284 21.2992C28.0517 21.8923 28.002 22.7261 28.4284 23.3731C28.7264 23.8252 29.3515 24.3354 30.0842 24.2027C30.9618 24.0451 31.2847 23.0828 31.3261 22.9583C31.3716 22.8173 31.5372 22.303 31.3261 21.714C31.1025 21.0877 30.4609 20.4157 29.6703 20.4696Z" fill="black"/>
<path d="M22.219 24.2027V26.6914C22.3887 27.2721 22.9476 27.6164 23.4609 27.521C23.8541 27.4463 24.1811 27.1186 24.2888 26.6914V24.2027C24.1811 23.7755 23.8541 23.4478 23.4609 23.3731C22.9476 23.2777 22.3887 23.622 22.219 24.2027Z" fill="black"/>
<path d="M30.9121 24.6175C30.3947 24.6714 29.5709 24.8415 28.8423 25.4471C28.4822 25.7457 28.0185 26.1315 28.0144 26.6914C28.0144 27.3592 28.6643 27.8113 28.8423 27.9358C29.3763 28.3091 29.902 28.3257 30.9121 28.3506C32.1415 28.3796 32.7956 28.392 33.3958 27.9358C33.5738 27.7989 34.1492 27.3924 34.2237 26.6914C34.2941 26.0609 33.9174 25.5839 33.8098 25.4471C33.3172 24.8249 32.5886 24.6963 32.154 24.6175C31.6282 24.5221 31.1853 24.5719 30.9121 24.6175Z" fill="#CCA8F4"/>
<path d="M16.0097 25.4471C15.7945 25.4885 15.0494 25.6503 14.3539 26.2766C13.9607 26.6292 13.5922 26.9652 13.526 27.521C13.4474 28.2054 13.8862 28.7073 13.94 28.7653C14.4409 29.3211 15.2439 29.2423 16.0097 29.1801C16.9246 29.1055 18.3734 28.9893 18.9074 27.9358C19.1434 27.4712 19.222 26.791 18.9074 26.2766C18.5432 25.6793 17.8063 25.5466 17.2516 25.4471C16.6472 25.3392 16.1753 25.4139 16.0097 25.4471Z" fill="#CCA8F4"/>
<path d="M19.7353 30.4245H26.7725C27.1989 30.5323 27.5259 30.86 27.6004 31.254C27.6956 31.7684 27.3521 32.3283 26.7725 32.4984H19.3213C18.8825 32.3657 18.5472 32.0421 18.4934 31.6688C18.4147 31.1255 18.9281 30.4742 19.7353 30.4245Z" fill="black"/>
</g>
<defs>
<clipPath id="clip0_4_148">
<rect width="48.913" height="45" fill="white" transform="translate(0.217285)"/>
</clipPath>
</defs>
</svg>
