<svg width="50" height="45" viewBox="0 0 50 45" fill="none" xmlns="http://www.w3.org/2000/svg">
<g clip-path="url(#clip0_4_132)">
<path d="M13.6557 3.22585C14.2665 2.92187 16.3283 1.89648 18.5745 1.19937C20.0132 0.753541 25.6985 -1.0095 31.6912 0.79407C33.2939 1.27637 34.8925 2.00591 35.7902 2.41525C37.5855 3.23395 38.9423 3.85405 40.2991 4.84703C42.1067 6.17235 43.0454 7.52603 44.8079 10.1159C46.9025 13.1961 47.9559 14.7362 48.497 16.6006C49.3701 19.5998 48.9971 22.1207 48.497 25.5171C48.2511 27.191 47.9191 29.3512 46.8574 32.0019C46.136 33.8095 45.0129 36.6101 42.3485 39.2972C41.5288 40.124 37.8684 43.6582 32.511 44.566C30.3427 44.9348 27.3586 44.9632 26.3626 44.9713C25.2394 44.9835 24.6287 44.9511 22.2636 44.9713C20.1034 44.9916 19.9805 45.02 19.3943 44.9713C17.6645 44.8214 16.6111 44.3634 14.8854 43.7554C11.4341 42.5395 11.2414 42.8151 9.55677 42.1343C8.46234 41.6925 4.21991 39.9821 1.76872 35.6495C-0.00203473 32.5247 0.0758457 29.4931 0.129132 27.1383C0.202914 23.6973 1.14158 20.8967 1.76872 19.0324C2.36307 17.2612 2.99431 15.8792 3.40831 14.9794C4.20761 13.2448 4.95362 11.6236 6.27759 9.71058C7.38021 8.11777 8.60991 6.37905 10.7865 4.84703C11.6964 4.20666 12.4588 3.82568 13.6557 3.22585Z" fill="#FF8888"/>
<path d="M26.7724 19.0327C28.2727 17.9384 29.2318 17.4115 29.2318 17.4115C29.8672 17.0629 30.6952 16.6374 31.6912 16.1956C32.1052 15.9403 32.6053 15.9484 32.9209 16.1956C33.3472 16.532 33.4169 17.298 32.9209 17.8168C31.683 18.445 30.7157 19.0205 30.0516 19.438C29.1007 20.0338 27.8095 20.9092 27.6168 21.043C27.6168 21.043 27.6045 21.0511 27.5922 21.0592C27.4857 21.1321 27.1373 21.3672 26.7724 21.4645C26.5142 21.5334 26.2191 21.6144 25.9527 21.4645C25.6534 21.2983 25.5346 20.9295 25.5428 20.6539C25.5428 20.5607 25.5673 20.3296 25.9527 19.8433C26.3421 19.3488 26.7356 19.057 26.7724 19.0327Z" fill="black"/>
<path d="M16.9349 18.6274C16.4103 18.3883 15.861 18.1208 15.2953 17.8168C14.5452 17.4156 13.8648 17.0062 13.2459 16.6009C13.1147 16.5604 12.795 16.4834 12.4261 16.6009C12.3646 16.6212 11.7087 16.8441 11.6063 17.4115C11.5202 17.8816 11.8481 18.4126 12.4261 18.6274C12.9507 18.8665 13.5 19.134 14.0656 19.438C14.8158 19.8392 15.4962 20.2486 16.1151 20.6539C16.5209 20.897 17.0046 20.897 17.3448 20.6539C17.7178 20.3864 17.7506 19.9487 17.7547 19.8433C17.7752 19.3529 17.4514 18.8787 16.9349 18.6274Z" fill="black"/>
<path d="M21.0339 19.8433V21.8698C21.0339 22.3156 21.4028 22.6803 21.8537 22.6803C22.3046 22.6803 22.6735 22.3156 22.6735 21.8698V19.8433C22.6735 19.3975 22.3046 19.0327 21.8537 19.0327C21.4028 19.0327 21.0339 19.3975 21.0339 19.8433Z" fill="black"/>
<path d="M15.7052 28.3545C16.7013 27.6452 17.5539 27.1021 18.1646 26.7333C19.7837 25.7485 20.7879 25.1283 22.2636 24.7068C23.6285 24.3178 24.5098 24.3015 24.723 24.3015C25.555 24.3056 26.7233 24.3137 27.5922 25.1121C28.0431 25.5255 28.2727 26.0241 28.412 26.328C28.7113 26.9765 28.7973 27.5642 28.8219 27.9492V29.1651C28.7563 29.6069 28.4079 29.9433 28.0021 29.9757C27.6865 30.0041 27.3709 29.8419 27.1823 29.5704V29.1651C27.0471 28.4883 26.9077 27.8155 26.7724 27.1386C26.6495 26.9035 26.4035 26.5145 25.9526 26.328C25.6206 26.1902 25.3255 26.2267 24.723 26.328C23.6572 26.5104 23.1244 26.5996 22.6735 26.7333C22.3087 26.8427 21.6077 27.0697 20.624 27.5439C19.7837 27.9492 18.6319 28.5855 17.3448 29.5704C17.0702 29.8419 16.7996 30.1094 16.525 30.381C16.111 30.6363 15.6109 30.6282 15.2953 30.381C14.869 30.0446 14.7993 29.2786 15.2953 28.7598C15.4306 28.6261 15.5699 28.4883 15.7052 28.3545Z" fill="black"/>
</g>
<defs>
<clipPath id="clip0_4_132">
<rect width="48.913" height="45" fill="white" transform="translate(0.108643)"/>
</clipPath>
</defs>
</svg>
