<svg width="274" height="43" viewBox="0 0 274 43" fill="none" xmlns="http://www.w3.org/2000/svg">
<path d="M207.73 35V12.8H221.35V16.49H212.17V21.62H219.94V25.37H212.17V31.28H221.68V35H207.73ZM226.187 35V12.8H232.277C239.057 12.8 243.227 16.31 243.227 23.81C243.227 31.28 239.057 35 232.517 35H226.187ZM230.627 31.43H231.977C236.147 31.43 238.697 29.21 238.697 23.81C238.697 18.41 236.147 16.34 231.977 16.34H230.627V31.43ZM247.603 35V12.8H252.043V35H247.603ZM261.915 35V16.49H255.645V12.8H272.625V16.49H266.355V35H261.915Z" fill="#6F7CE5"/>
<g clip-path="url(#clip0_17_1087)">
<path d="M101.244 11.5558C92.7922 11.5558 85.9228 18.3256 85.758 26.7413C85.7547 26.8452 85.7531 26.9491 85.7531 27.053C85.7531 27.5263 85.7745 27.9964 85.8173 28.4598C86.5262 36.361 93.1615 42.5503 101.244 42.5503C109.8 42.5503 116.735 35.6122 116.735 27.053C116.735 18.4938 109.8 11.5558 101.244 11.5558ZM93.112 29.1359C93.0032 28.5142 92.9406 27.876 92.9323 27.2245C93.0279 22.7553 96.681 19.1601 101.172 19.1601C105.662 19.1601 109.414 22.8526 109.414 27.4059C109.414 31.9593 105.723 35.6518 101.172 35.6518C97.2185 35.6518 93.9148 32.8664 93.1137 29.1524C93.1137 29.1475 93.1137 29.1409 93.1104 29.1359H93.112Z" fill="#6F7CE5"/>
<path d="M116.663 27.0514C116.663 33.6085 111.349 38.9221 104.797 38.9221C98.9593 38.9221 94.1061 34.7068 93.1153 29.1524C93.9165 32.868 97.2201 35.6518 101.173 35.6518C105.725 35.6518 109.416 31.9593 109.416 27.4059C109.416 22.8526 105.725 19.1601 101.173 19.1601C96.6217 19.1601 93.0279 22.7536 92.934 27.2245C92.9307 27.1668 92.9307 27.1091 92.9307 27.0514C92.9307 20.4943 98.2422 15.1806 104.797 15.1806C111.351 15.1806 116.663 20.4943 116.663 27.0514Z" fill="#596BD3"/>
<path d="M153.18 3.57211V39.4152H153.082C152.831 41.1864 151.308 42.5486 149.47 42.5486C147.795 42.5486 146.382 41.419 145.955 39.8786C145.892 39.656 145.849 39.4218 145.833 39.181C145.83 39.1579 145.828 39.1332 145.826 39.1085C145.821 39.0392 145.82 38.9683 145.82 38.8974V26.8782C145.82 22.5788 142.47 18.9886 138.177 18.7742C138.148 18.7742 138.118 18.7709 138.088 18.7709C137.918 18.7593 137.745 18.7544 137.574 18.7544C137.403 18.7544 137.229 18.7593 137.06 18.7709C130.739 19.0397 125.695 24.2527 125.695 30.6433C125.695 35.7392 128.903 40.0881 133.41 41.7735C126.877 39.9561 122.083 33.9614 122.083 26.8452C122.083 18.2877 129.018 11.348 137.574 11.348C140.698 11.348 143.606 12.2748 146.037 13.8646V3.57211C146.037 1.5997 147.636 0 149.61 0C150.596 0 151.487 0.3991 152.134 1.04558C152.78 1.69205 153.18 2.5859 153.18 3.57211Z" fill="#6F7CE5"/>
<path d="M137.574 18.7593C137.401 18.7593 137.231 18.7626 137.06 18.7709C137.229 18.7593 137.401 18.7544 137.574 18.7544C137.747 18.7544 137.919 18.7593 138.088 18.7709C137.917 18.7626 137.745 18.7593 137.574 18.7593Z" fill="#4D4D4D"/>
<path d="M141.197 38.8759C141.197 40.436 140.226 41.7686 138.858 42.2897C138.435 42.326 138.006 42.3425 137.574 42.3425C137.142 42.3425 136.713 42.326 136.29 42.2897C135.301 42.2089 134.336 42.0357 133.41 41.7735C128.903 40.0881 125.695 35.7392 125.695 30.6433C125.695 24.2527 130.739 19.0397 137.06 18.7709C132.746 19.0364 129.331 22.62 129.331 27.0002C129.331 31.3804 132.849 35.0729 137.254 35.2395C137.36 35.2296 137.467 35.2247 137.574 35.2247C137.681 35.2247 137.788 35.2296 137.894 35.2395C139.745 35.4028 141.197 36.9678 141.197 38.8759Z" fill="#4D4D4D"/>
<path d="M137.894 35.2395C137.788 35.2461 137.681 35.2478 137.574 35.2478C137.467 35.2478 137.36 35.2478 137.254 35.2395C137.36 35.2296 137.467 35.2263 137.574 35.2263C137.681 35.2263 137.788 35.2313 137.894 35.2395Z" fill="black"/>
<path d="M138.088 18.7709C137.917 18.7626 137.745 18.7593 137.574 18.7593C137.403 18.7593 137.231 18.7626 137.06 18.7709C137.229 18.7593 137.401 18.7544 137.574 18.7544C137.747 18.7544 137.919 18.7593 138.088 18.7709Z" fill="black"/>
<path d="M141.197 38.8759C141.197 40.436 140.226 41.7686 138.858 42.2897C138.459 42.4431 138.026 42.5255 137.574 42.5255C136.108 42.5255 134.706 42.26 133.41 41.7735C128.903 40.0881 125.695 35.7392 125.695 30.6433C125.695 24.2527 130.739 19.0397 137.06 18.7709C132.746 19.0364 129.331 22.62 129.331 27.0002C129.331 31.3804 132.849 35.0729 137.254 35.2395C137.36 35.2296 137.467 35.2247 137.574 35.2247C137.681 35.2247 137.788 35.2296 137.894 35.2395C139.745 35.4028 141.197 36.9678 141.197 38.8759Z" fill="#596BD3"/>
<path d="M141.197 38.8759C141.197 40.4377 140.225 41.7686 138.858 42.2897C138.459 42.4414 138.026 42.5255 137.574 42.5255C137.122 42.5255 136.689 42.4414 136.29 42.2897C134.922 41.7686 133.951 40.4361 133.951 38.8759C133.951 36.9678 135.405 35.4028 137.254 35.2395C137.36 35.2296 137.467 35.2263 137.574 35.2263C137.681 35.2263 137.788 35.2313 137.894 35.2395C139.745 35.4028 141.197 36.9678 141.197 38.8759Z" fill="#4C62C1"/>
<path d="M174.509 11.5558C166.057 11.5558 159.188 18.3256 159.023 26.7413C159.019 26.8452 159.018 26.9491 159.018 27.053C159.018 27.5263 159.039 27.9964 159.082 28.4598C159.791 36.361 166.426 42.5503 174.509 42.5503C183.065 42.5503 190 35.6122 190 27.053C190 18.4938 183.065 11.5558 174.509 11.5558ZM166.377 29.1359C166.268 28.5142 166.205 27.876 166.197 27.2245C166.293 22.7553 169.946 19.1601 174.436 19.1601C178.927 19.1601 182.679 22.8526 182.679 27.4059C182.679 31.9593 178.988 35.6518 174.436 35.6518C170.483 35.6518 167.18 32.8664 166.378 29.1524C166.378 29.1475 166.378 29.1409 166.375 29.1359H166.377Z" fill="#6F7CE5"/>
<path d="M189.929 27.0514C189.929 33.6085 184.616 38.9221 178.063 38.9221C172.226 38.9221 167.373 34.7068 166.382 29.1524C167.183 32.868 170.487 35.6518 174.44 35.6518C178.991 35.6518 182.682 31.9593 182.682 27.4059C182.682 22.8526 178.991 19.1601 174.44 19.1601C169.888 19.1601 166.294 22.7536 166.2 27.2245C166.197 27.1668 166.197 27.1091 166.197 27.0514C166.197 20.4943 171.509 15.1806 178.063 15.1806C184.618 15.1806 189.929 20.4943 189.929 27.0514Z" fill="#596BD3"/>
<path d="M73.7733 3.64633V39.0145H66.6303V4.06027C66.6138 3.92504 66.6056 3.7865 66.6056 3.64633C66.6056 1.67392 68.2046 0.0742188 70.1763 0.0742188C72.1479 0.0742188 73.7469 1.67392 73.7469 3.64633H73.7717H73.7733Z" fill="#6F7CE5"/>
<path d="M70.2009 42.5486C72.173 42.5486 73.7716 40.9493 73.7716 38.9765C73.7716 37.0037 72.173 35.4044 70.2009 35.4044C68.2289 35.4044 66.6302 37.0037 66.6302 38.9765C66.6302 40.9493 68.2289 42.5486 70.2009 42.5486Z" fill="#596BD3"/>
<path d="M81.3564 10.619H58.5707C56.5986 10.619 55 12.2183 55 14.1911V14.1928C55 16.1656 56.5986 17.7649 58.5707 17.7649H81.3564C83.3285 17.7649 84.9271 16.1656 84.9271 14.1928V14.1911C84.9271 12.2183 83.3285 10.619 81.3564 10.619Z" fill="#6F7CE5"/>
</g>
<g clip-path="url(#clip1_17_1087)">
<path d="M23.3333 12L25.6833 14.35L18.05 22L25.6833 29.65L23.3333 32L13.3333 22L23.3333 12Z" fill="#6F7CE5"/>
</g>
<defs>
<clipPath id="clip0_17_1087">
<rect width="135" height="42.5486" fill="white" transform="translate(55)"/>
</clipPath>
<clipPath id="clip1_17_1087">
<rect width="40" height="40" fill="white" transform="matrix(-1 0 0 1 40 2)"/>
</clipPath>
</defs>
</svg>
