<svg width="49" height="45" viewBox="0 0 49 45" fill="none" xmlns="http://www.w3.org/2000/svg">
<g clip-path="url(#clip0_5_310)">
<path d="M12.7606 2.94547C11.1016 3.90283 9.09967 5.34092 7.2586 7.46519C6.50948 8.32805 4.96891 10.1318 3.87274 12.8067C3.40718 13.9407 3.47067 14.1421 2.17981 17.7373C1.73118 18.9905 1.57035 19.389 1.33334 20.2026C1.17251 20.7614 0.812763 22.0639 0.486873 24.3114C0.0890342 27.0685 -0.109885 28.449 0.0636402 30.0638C0.326045 32.488 1.15981 34.2302 1.33334 34.5835C2.71731 37.4063 4.80385 39.0129 5.9889 39.925C7.03429 40.7304 7.9654 41.2686 8.5283 41.5686C10.107 42.415 11.3851 42.8012 12.7606 43.2121C15.3043 43.9681 17.3358 44.2598 18.6859 44.4447C20.6158 44.7118 22.0718 44.7899 23.3415 44.8556C26.2745 45.0077 27.7388 45.0816 29.69 44.8556C30.9808 44.7036 33.3086 44.416 36.0385 43.2121C38.235 42.2424 39.7036 41.1084 40.694 40.3359C41.6294 39.6086 43.0599 38.4746 44.5031 36.6379C44.9517 36.0627 46.3907 34.1685 47.4657 31.2965C48.2064 29.3201 49.3534 26.2549 48.7354 22.6679C48.236 19.7712 47.2245 20.2149 45.7728 15.272C45.2395 13.46 45.0618 12.3301 44.0799 10.7523C43.1784 9.30595 42.1796 8.40612 41.1172 7.46519C39.5471 6.0723 38.2139 5.28751 35.6152 3.76724C33.3255 2.42776 32.1828 1.76212 30.9597 1.30193C28.2764 0.295268 26.0121 0.151459 24.6112 0.0692819C22.4569 -0.0539833 19.2615 -0.197793 15.7233 1.30193C14.4282 1.85252 13.4293 2.47706 12.7606 2.94547Z" fill="#FFE07D"/>
<path d="M18.2624 16.0943C18.0974 16.1519 17.2298 16.4641 16.9927 17.327C16.7727 18.1241 17.2636 18.7692 17.416 18.9705C17.5853 19.1965 18.0043 19.7471 18.6857 19.7923C19.4771 19.8457 20.1501 19.1842 20.3786 18.5596C20.5691 18.0378 20.4463 17.5694 20.3786 17.327C20.2897 17.0024 20.1204 16.3737 19.5321 16.0943C19.0073 15.8437 18.4656 16.0245 18.2624 16.0943Z" fill="black"/>
<path d="M31.3827 16.0943C30.7606 16.0121 30.2908 16.3696 30.113 16.5052C30.0326 16.5668 28.9195 17.4379 29.2666 18.5596C29.4824 19.2581 30.2061 19.8457 30.9595 19.7923C31.6367 19.7471 32.0514 19.2006 32.2292 18.9705C32.3392 18.8267 32.826 18.1569 32.6524 17.327C32.6186 17.1544 32.5382 16.8092 32.2292 16.5052C32.153 16.4312 31.8525 16.1559 31.3827 16.0943Z" fill="black"/>
<path d="M23.3413 21.4358V20.2032C23.3032 19.8662 23.4725 19.5457 23.7645 19.3814C24.0269 19.2376 24.3485 19.2376 24.611 19.3814C24.903 19.5457 25.0723 19.8662 25.0342 20.2032V23.0793C25.0723 23.4163 24.903 23.7368 24.611 23.9011C24.3485 24.0449 24.0269 24.0449 23.7645 23.9011C23.4725 23.7368 23.3032 23.4163 23.3413 23.0793V21.4358Z" fill="black"/>
<path d="M16.1463 23.9011C16.1463 23.9011 16.7346 24.9653 18.2625 26.7773C18.9651 27.6155 19.7861 27.9771 20.8019 28.4208C21.0982 28.5523 22.5583 29.1687 24.611 29.2426C25.3601 29.2673 26.5579 29.3001 27.9969 28.8317C29.3639 28.388 30.2654 27.7141 30.9595 27.1882C31.9372 26.4445 32.627 25.6926 33.0756 25.1338C33.1984 25.0187 33.4904 24.7845 33.9221 24.7229C34.1676 24.6859 34.2861 24.7023 34.3453 24.7229C34.6204 24.8133 34.739 25.0721 34.7686 25.1338C34.904 25.4255 34.8321 25.709 34.7686 25.9555C34.722 26.1404 34.612 26.4527 34.3453 26.7773C33.9814 27.2087 33.4227 27.8045 32.6524 28.4208C32.1826 28.7948 30.3966 30.1712 27.5736 30.8862C26.6552 31.1204 25.6056 31.3874 24.1878 31.297C22.753 31.2066 21.6611 30.7958 20.8019 30.4753C20.0993 30.2123 19.2529 29.8959 18.2625 29.2426C18.2625 29.2426 16.4934 28.0757 15.2999 26.3664C15.156 26.161 14.4534 25.1338 14.4534 25.1338C14.2037 24.7434 14.2037 24.2586 14.4534 23.9011C14.7497 23.4779 15.3422 23.33 15.7231 23.4902C15.9813 23.5971 16.104 23.8272 16.1463 23.9011Z" fill="black"/>
</g>
<defs>
<clipPath id="clip0_5_310">
<rect width="48.913" height="45" fill="white"/>
</clipPath>
</defs>
</svg>
