<svg width="50" height="45" viewBox="0 0 50 45" fill="none" xmlns="http://www.w3.org/2000/svg">
<g clip-path="url(#clip0_4_164)">
<path d="M10.4766 6.47518C11.6745 5.58601 14.0338 3.8683 17.4036 2.4335C20.1704 1.25738 23.3975 -0.116793 27.5904 0.00849905C34.4278 0.210583 39.2768 4.26034 41.4445 6.07101C42.7036 7.12185 44.3783 8.54047 45.9267 10.921C48.4897 14.8576 48.9094 18.6568 49.1865 21.4294C49.5817 25.4145 49.9525 29.1449 47.9641 33.1502C45.8208 37.4627 42.178 39.6048 39.4071 41.2336C38.1032 41.9975 35.0879 43.6262 30.8502 44.4669C29.0859 44.8185 26.2132 45.2106 22.7008 44.8711C16.9228 44.3133 12.9459 42.1147 12.1065 41.6377C9.27045 40.0251 7.4735 38.2589 6.40185 37.1919C3.94479 34.7467 2.05004 32.8592 1.1047 29.9169C-0.0321495 26.3723 0.852067 23.3047 2.32712 18.196C3.09724 15.5204 3.76142 13.3056 5.5869 10.921C7.04973 9.00931 8.5696 7.88572 10.4766 6.47518Z" fill="#E5E5E5"/>
<path d="M15.7734 15.0633C15.1337 15.1927 14.4899 15.6292 14.1435 16.2758C13.6872 17.1286 13.7157 18.4179 14.551 19.105C15.2478 19.6789 16.1198 19.5213 16.1809 19.5092C17.3381 19.2828 17.7497 18.0744 17.8108 17.8925C17.8841 17.6743 18.1001 17.0114 17.8108 16.2758C17.7578 16.1425 17.4196 15.2856 16.5884 15.0633C16.242 14.9704 15.9527 15.027 15.7734 15.0633Z" fill="black"/>
<path d="M26.9341 17.8561C26.7752 17.2701 26.9138 16.7891 26.9912 16.5264C27.1134 16.1141 27.3253 15.4068 27.9936 15.1037C28.7841 14.744 29.599 15.229 29.7294 15.3098C30.4343 15.7464 30.8662 16.6153 30.7114 17.4843C30.5484 18.3734 29.8435 18.8261 29.709 18.9069C29.542 19.008 28.6496 19.5213 27.8224 19.0929C27.1786 18.7574 26.9952 18.0703 26.9341 17.8561Z" fill="black"/>
<path d="M19.8481 19.105V20.7217C20.0152 21.2875 20.5653 21.623 21.0706 21.53C21.4577 21.4573 21.7796 21.138 21.8855 20.7217V19.105C21.7184 18.5392 21.1684 18.2037 20.6631 18.2967C20.276 18.3694 19.9541 18.6887 19.8481 19.105Z" fill="black"/>
<path d="M29.5949 26.6508C29.33 25.5151 28.4703 24.7067 27.965 24.2258C27.7368 24.0116 26.7344 23.0982 25.1127 22.6091C22.7045 21.8857 20.602 22.6051 19.4081 23.0133C17.9208 23.5266 16.1972 24.1126 14.9259 25.8425C14.6773 26.182 12.9252 28.5665 13.7035 31.0966C14.6325 34.1158 18.5646 35.4253 21.4454 35.1383C24.3344 34.8513 26.1436 32.9598 27.1501 31.905C28.1402 30.8703 30.0961 28.8212 29.5949 26.6508ZM27.2153 28.7363C26.5022 30.8137 24.3181 32.8992 21.5106 33.1821C19.5792 33.3761 16.5435 32.7941 15.806 30.7571C15.2233 29.1405 16.3887 27.4551 16.621 27.1196C17.7008 25.5555 19.3307 25.0867 20.6957 24.6946C21.6532 24.4157 23.605 23.8822 25.5854 24.6946C26.1151 24.9088 26.8037 25.2039 27.2153 25.9071C27.8305 26.9539 27.4027 28.1947 27.2153 28.7363Z" fill="black"/>
</g>
<defs>
<clipPath id="clip0_4_164">
<rect width="48.913" height="45" fill="white" transform="translate(0.586914)"/>
</clipPath>
</defs>
</svg>
