<svg width="50" height="45" viewBox="0 0 50 45" fill="none" xmlns="http://www.w3.org/2000/svg">
<g clip-path="url(#clip0_4_126)">
<path d="M11.5782 4.41723C11.7732 4.27773 14.9301 2.05838 17.2662 1.03536C20.6994 -0.469571 23.9497 -0.0848834 29.8612 0.612627C35.3745 1.26364 36.9793 2.30356 37.5806 2.7263C38.0966 3.08985 38.6045 3.51681 41.6435 7.37637C44.6826 11.2359 46.2061 13.1678 46.9253 14.5628C47.7378 16.1396 49.1436 18.862 49.363 22.5948C49.6352 27.2364 47.9126 30.7493 46.519 33.5859C45.7511 35.15 44.7882 37.0776 42.8624 39.0814C40.7497 41.2796 38.6492 42.3534 37.5806 42.886C33.3715 44.987 29.3289 44.987 27.8297 44.9997C27.8013 44.9997 27.8216 44.9997 24.5794 44.9997C22.1796 44.9997 20.9607 44.9997 20.9228 44.9997C19.4358 44.9912 15.1495 45.0631 11.1719 43.3087C9.33548 42.4971 5.98767 41.0217 3.45243 37.3905C-0.0741558 32.343 0.433705 26.653 0.608409 24.7084C0.880622 21.669 1.73789 19.5807 3.45243 15.4083C3.69214 14.8207 5.31323 10.9358 7.51531 8.22183C8.6651 6.80568 9.95304 5.68543 9.95304 5.68543C10.53 5.18661 11.05 4.78924 11.5782 4.41723Z" fill="#A2E0AC"/>
<path d="M17.6724 16.8375C17.5139 16.8967 16.681 17.2179 16.4535 18.1057C16.2423 18.9258 16.7135 19.5895 16.8598 19.7966C17.0223 20.0291 17.4246 20.5956 18.0787 20.6421C18.8384 20.697 19.4844 20.0164 19.7038 19.3739C19.8867 18.837 19.7688 18.3551 19.7038 18.1057C19.6185 17.7717 19.456 17.1249 18.8913 16.8375C18.3875 16.5796 17.8674 16.7656 17.6724 16.8375Z" fill="black"/>
<path d="M30.6411 16.4148C31.2384 16.3302 31.6893 16.698 31.86 16.8375C31.9372 16.9009 33.0057 17.7971 32.6726 18.9512C32.4654 19.6698 31.7706 20.2743 31.0474 20.2194C30.3974 20.1729 29.9992 19.6106 29.8285 19.3739C29.7229 19.2259 29.2557 18.5369 29.4223 17.683C29.4548 17.5054 29.532 17.1503 29.8285 16.8375C29.9017 16.7614 30.1901 16.4782 30.6411 16.4148Z" fill="black"/>
<path d="M23.3604 21.1705V20.0841C23.3239 19.7882 23.4864 19.5049 23.7667 19.3612C24.0186 19.2344 24.3274 19.2344 24.5793 19.3612C24.8597 19.5049 25.0222 19.7924 24.9856 20.0841V22.6205C25.0222 22.9164 24.8597 23.1996 24.5793 23.3434C24.3274 23.4702 24.0186 23.4702 23.7667 23.3434C23.4864 23.1996 23.3239 22.9122 23.3604 22.6205V21.1705Z" fill="black"/>
<path d="M19.0945 25.977C22.3082 26.2306 25.6113 26.3744 28.9998 26.3997C29.6417 26.4039 30.2796 26.4039 30.9174 26.3997C31.3562 26.2856 31.7869 26.666 31.8763 27.2452C31.9657 27.8243 31.6772 28.3993 31.2384 28.5134C26.7652 28.3739 22.2919 28.2302 17.8187 28.0907C17.1971 28.0272 16.8071 27.3466 16.8599 26.8225C16.9168 26.2644 17.4937 25.7191 18.1397 25.977H19.0985H19.0945Z" fill="black"/>
</g>
<defs>
<clipPath id="clip0_4_126">
<rect width="48.913" height="45" fill="white" transform="translate(0.478271)"/>
</clipPath>
</defs>
</svg>
