<svg width="50" height="45" viewBox="0 0 50 45" fill="none" xmlns="http://www.w3.org/2000/svg">
<g clip-path="url(#clip0_4_157)">
<path d="M8.36902 7.27236C9.15788 6.34229 11.4009 3.75655 15.142 2.06078C17.3174 1.07459 19.1381 0.777929 21.1182 0.457217C22.2696 0.268798 24.8434 -0.148129 27.4928 0.0563256C33.8315 0.545413 38.3416 4.43405 40.242 6.06969C44.3855 9.64163 46.3735 13.5383 47.015 14.8893C48.3417 17.6875 50.3616 21.953 49.4055 27.3169C48.5568 32.0755 45.8118 35.2145 44.6245 36.5374C42.6006 38.7904 40.5846 40.0211 39.0467 40.9472C34.979 43.3886 31.2458 44.2385 29.4849 44.5552C23.9429 45.5574 19.6003 44.6234 17.5325 44.1543C14.5723 43.4848 12.4288 42.5508 11.5563 42.1499C8.9268 40.9392 6.55227 39.8488 4.3849 37.3392C3.7076 36.5574 1.38088 33.7953 0.799195 29.7223C0.623894 28.4835 0.87091 28.9886 1.19761 22.9071C1.40877 18.9623 1.34104 18.0283 1.99443 16.4929C2.47651 15.3543 2.79126 15.214 4.78332 12.4839C7.51642 8.73561 7.08215 8.78773 8.36902 7.27236Z" fill="#FFC5C5"/>
<path d="M13.5481 18.0962C13.7752 17.9559 14.09 17.9479 14.3449 18.0962C14.6198 18.2566 14.7792 18.5693 14.7434 18.898V19.6998C14.8151 19.8361 14.9346 20.0165 15.1418 20.1007C15.5203 20.253 15.9386 19.9764 16.337 19.6998C16.8868 19.3229 17.2095 18.906 17.5322 18.4971C17.7673 18.1964 18.0263 17.8677 18.2494 17.4307C18.2813 17.3746 18.2932 17.3385 18.3291 17.2944C18.5761 16.9456 19.1418 16.6771 19.5243 16.8935C19.8351 17.0699 19.8948 17.4989 19.9227 17.6953C19.9506 17.8918 19.9307 18.0441 19.9227 18.0962C19.8629 18.4811 19.6518 18.7376 19.5243 18.898C19.0223 19.5314 19.1817 19.5434 18.7275 20.1007C18.4526 20.4374 17.8191 21.1991 16.7354 21.7042C16.2215 21.9448 15.7673 22.1572 15.1418 22.1051C14.9824 22.0931 14.074 22.0169 13.5481 21.3033C13.2971 20.9626 13.2374 20.6178 13.1497 20.1007C13.0421 19.4632 13.1178 19.0423 13.1497 18.898C13.2254 18.5452 13.2891 18.2566 13.5481 18.0962Z" fill="black"/>
<path d="M25.8988 17.98C26.1259 17.8397 26.4407 17.8316 26.6956 17.98C26.9706 18.1403 27.1299 18.453 27.0941 18.7817V19.5835C27.1658 19.7198 27.2853 19.9002 27.4925 19.9844C27.871 20.1368 28.2893 19.8601 28.6877 19.5835C29.2375 19.2067 29.5602 18.7898 29.8829 18.3809C30.118 18.0802 30.377 17.7515 30.6001 17.3145C30.632 17.2584 30.6439 17.2223 30.6798 17.1782C30.9268 16.8294 31.4925 16.5608 31.875 16.7773C32.1858 16.9537 32.2455 17.3826 32.2734 17.5791C32.3013 17.7755 32.2814 17.9278 32.2734 17.98C32.2137 18.3648 32.0025 18.6214 31.875 18.7817C31.373 19.4152 31.5324 19.4272 31.0782 19.9844C30.8033 20.3212 30.1698 21.0829 29.0861 21.588C28.5722 21.8285 28.118 22.041 27.4925 21.9889C27.3331 21.9768 26.4247 21.9007 25.8988 21.1871C25.6478 20.8463 25.5881 20.5016 25.5004 19.9844C25.3928 19.347 25.4685 18.9261 25.5004 18.7817C25.5761 18.429 25.6399 18.1403 25.8988 17.98Z" fill="black"/>
<path d="M20.3211 25.7131C20.8231 25.6289 21.2175 25.677 21.5163 25.7131C22.8072 25.8695 23.4606 25.9416 23.9068 25.7131C24.2216 25.5528 24.2853 25.3884 24.3052 25.3122C24.4008 24.9394 23.9626 24.5586 23.9068 24.5105C23.5443 24.1978 23.118 24.1456 22.7116 24.1096C21.4128 23.9973 20.7633 23.9412 19.9227 24.1096C19.1936 24.2579 18.5522 24.3862 17.9306 24.9113C17.6199 25.1759 17.1737 25.5528 17.1338 26.114C17.09 26.7474 17.588 27.3207 17.9306 27.7176C18.086 27.898 18.2294 28.0343 18.329 28.1185C18.1418 28.2267 17.7792 28.4713 17.5322 28.9203C17.1737 29.5737 17.2254 30.3635 17.5322 30.9247C17.8828 31.5621 18.4884 31.7706 19.5243 32.1274C20.5602 32.4842 21.4446 32.5283 21.9148 32.5283C22.8988 32.5283 23.7196 32.3278 24.3052 32.1274C24.7674 31.8468 24.9108 31.2935 24.7036 30.9247C24.5562 30.6641 24.2415 30.5118 23.9068 30.5238C23.1419 30.5519 22.847 30.5078 21.9148 30.5238C20.5641 30.5439 20.1139 30.2672 19.9227 30.1229C19.7753 30.0107 19.592 29.9185 19.5243 29.722C19.4805 29.6018 19.4725 29.4414 19.5243 29.3211C19.6119 29.1127 19.9028 28.9764 21.1179 28.9203C21.5044 28.9042 22.0502 28.8922 22.7116 28.9203C23.1618 28.9002 23.5084 28.5314 23.5084 28.1185C23.5084 27.7136 23.1777 27.4049 22.8789 27.3367C22.8032 27.3207 22.7474 27.3167 22.7116 27.3167C22.3132 27.3167 21.9148 27.3087 21.5163 27.3167C21.5163 27.3167 20.6876 27.3287 19.9227 26.9158C19.7673 26.8316 19.596 26.7194 19.5243 26.5149C19.5123 26.4748 19.4486 26.2904 19.5243 26.114C19.5641 26.0178 19.6916 25.8174 20.3211 25.7131Z" fill="black"/>
<path d="M20.7195 20.6058V21.8085C20.8828 22.3697 21.4207 22.7025 21.9147 22.6103C22.2932 22.5381 22.608 22.2214 22.7115 21.8085V20.6058C22.608 20.1929 22.2932 19.8762 21.9147 19.804C21.4207 19.7118 20.8828 20.0446 20.7195 20.6058Z" fill="black"/>
</g>
<defs>
<clipPath id="clip0_4_157">
<rect width="48.913" height="45" fill="white" transform="translate(0.739136)"/>
</clipPath>
</defs>
</svg>
